<svg viewBox="0 0 32 32" xmlns="http://www.w3.org/2000/svg">
  <defs>
    <linearGradient id="sageGradient" x1="0%" y1="0%" x2="100%" y2="0%">
      <stop offset="0%" style="stop-color:#0D9488;stop-opacity:1" />
      <stop offset="100%" style="stop-color:#3B82F6;stop-opacity:1" />
    </linearGradient>
    <linearGradient id="aiGradient" x1="0%" y1="0%" x2="100%" y2="0%">
      <stop offset="0%" style="stop-color:#3B82F6;stop-opacity:1" />
      <stop offset="100%" style="stop-color:#8B5CF6;stop-opacity:1" />
    </linearGradient>
  </defs>
  
  <!-- Background circle -->
  <circle cx="16" cy="16" r="16" fill="url(#sageGradient)" opacity="0.1"/>
  
  <!-- Head outline -->
  <path d="M16 6 C10 6 6 10 6 16 C6 22 10 26 16 26 C22 26 26 22 26 16 C26 10 22 6 16 6" 
        fill="none" stroke="url(#sageGradient)" stroke-width="1.5" stroke-dasharray="0 0"/>
  
  <!-- Left half - Sage features -->
  <path d="M16 6 C10 6 6 10 6 16 C6 22 10 26 16 26" 
        fill="none" stroke="url(#sageGradient)" stroke-width="1.5"/>
  <circle cx="13" cy="14" r="1.5" fill="url(#sageGradient)"/> <!-- Sage eye -->
  <path d="M11 19 Q15 22 16 19" fill="none" stroke="url(#sageGradient)" stroke-width="1"/> <!-- Sage beard -->
  
  <!-- Right half - AI features -->
  <path d="M16 6 C22 6 26 10 26 16 C26 22 22 26 16 26" 
        fill="none" stroke="url(#aiGradient)" stroke-width="1.5"/>
  <rect x="18" y="13" width="3" height="3" fill="url(#aiGradient)" rx="0.3"/> <!-- AI eye -->
  <circle cx="21" cy="11" r="0.4" fill="url(#aiGradient)"/> <!-- AI sensor dots -->
  <circle cx="23" cy="13" r="0.4" fill="url(#aiGradient)"/>
  <circle cx="21" cy="15" r="0.4" fill="url(#aiGradient)"/>
  
  <!-- Curved arrows -->
  <path d="M10 21 Q6 16 10 11" fill="none" stroke="url(#sageGradient)" stroke-width="1" 
        marker-end="url(#arrowhead1)"/>
  <path d="M22 11 Q26 16 22 21" fill="none" stroke="url(#aiGradient)" stroke-width="1" 
        marker-end="url(#arrowhead2)"/>
  
  <defs>
    <marker id="arrowhead1" markerWidth="3" markerHeight="2" refX="2" refY="1" orient="auto">
      <polygon points="0 0, 3 1, 0 2" fill="url(#sageGradient)"/>
    </marker>
    <marker id="arrowhead2" markerWidth="3" markerHeight="2" refX="1" refY="1" orient="auto">
      <polygon points="3 0, 0 1, 3 2" fill="url(#aiGradient)"/>
    </marker>
  </defs>
</svg> 